<svg xmlns="http://www.w3.org/2000/svg" viewBox="0 0 800 700"><defs><linearGradient id="bg" x1="0" y1="0" x2="1" y2="1"><stop stop-color="#14201c"/><stop offset="1" stop-color="#080c0b"/></linearGradient><linearGradient id="lime" x1="0" y1="0" x2="1" y2="1"><stop stop-color="#efff55"/><stop offset="1" stop-color="#a8ff43"/></linearGradient></defs><rect width="800" height="700" rx="36" fill="url(#bg)"/><path d="M95 0h250L250 700H0z" fill="url(#lime)" opacity=".92"/><g opacity=".22" stroke="#fff"><path d="M0 80h800M0 160h800M0 240h800M0 320h800M0 400h800M0 480h800M0 560h800M0 640h800"/><path d="M80 0v700M160 0v700M240 0v700M320 0v700M400 0v700M480 0v700M560 0v700M640 0v700M720 0v700"/></g><ellipse cx="400" cy="610" rx="180" ry="35" fill="#000" opacity=".35"/><path d="M300 290c8-95 75-145 139-145s131 52 137 145l-13 185H313z" fill="#2a3330"/><circle cx="438" cy="207" r="66" fill="#c6cbc8"/><path d="M377 200c5-63 119-80 128 12-30-23-62-30-128-12z" fill="#222927"/><rect x="371" y="266" width="135" height="215" rx="34" fill="#4a5551"/><path d="M395 330h87v160h-87z" fill="#1a211f"/><rect x="399" y="350" width="80" height="125" rx="12" fill="#0d1211" stroke="#10f59d" stroke-width="4"/><path d="M410 447c18-52 31 20 48-46 11-40 20 25 29-21" fill="none" stroke="#d9ff45" stroke-width="4"/><rect x="112" y="110" width="155" height="78" rx="16" fill="#101917" stroke="#10f59d" stroke-opacity=".5"/><text x="132" y="139" fill="#aebbb5" font-family="Arial" font-size="16">EURUSD</text><text x="132" y="168" fill="#10f59d" font-family="Arial" font-weight="700" font-size="20">+0.52%</text><rect x="560" y="160" width="160" height="78" rx="16" fill="#101917" stroke="#d9ff45" stroke-opacity=".5"/><text x="580" y="189" fill="#aebbb5" font-family="Arial" font-size="16">PORTFOLIO</text><text x="580" y="218" fill="#d9ff45" font-family="Arial" font-weight="700" font-size="20">$34,453</text><circle cx="660" cy="530" r="60" fill="#10f59d" opacity=".12"/><path d="M635 565c26-63 51-73 75-119" fill="none" stroke="#10f59d" stroke-width="3"/><circle cx="710" cy="446" r="7" fill="#d9ff45"/></svg>